<svg xmlns="http://www.w3.org/2000/svg" version="1.2" viewBox="0 0 298.322 57.313">
  <defs/>
  <path d="M32.86 56.851c-.947-.248-3-.96-4.56-1.582-4.163-1.659-5.83-2.069-8.477-2.085-2.491-.016-4.182.461-5.76 1.625-.448.33-.89.6-.982.6-.093 0-.674-.81-1.29-1.8l-1.122-1.799.504-.707c.917-1.288 3.226-3.18 4.789-3.923l1.54-.733-1.577-.432c-3.598-.985-6.52-2.754-9.329-5.645C2.714 36.372.738 31.947.133 25.899c-.574-5.743.72-11.217 3.717-15.72C7.229 5.098 12.316 1.551 17.87.4c3.05-.632 8.097-.499 10.83.287 5.189 1.49 9.666 4.909 12.822 9.787 2.739 4.233 3.963 9.6 3.48 15.259-.758 8.905-6.016 16.368-13.742 19.504l-1.88.764 1.16.248c2.96.632 4.6.808 6.523.703 2.344-.128 3.778-.647 5.171-1.87.486-.427.944-.716 1.017-.643.074.073.823 1.61 1.666 3.416 1.79 3.834 1.804 3.695-.62 6.119-3.013 3.013-7.048 4.028-11.438 2.877zm-7.486-20.747c3.152-.668 5.42-2.427 6.893-5.343 1.146-2.272 1.553-4.162 1.565-7.272.011-3.109-.38-4.983-1.539-7.36-1.645-3.376-4.214-5.17-8.1-5.655-2.41-.3-4.966.09-6.955 1.06-2.36 1.154-4.317 3.76-5.372 7.155-.715 2.304-.769 6.91-.108 9.341.926 3.407 2.539 5.678 4.943 6.96 2.553 1.36 5.64 1.757 8.673 1.114zm38.293 10.643c-7.844-.828-12.672-4.88-14.109-11.839-.413-2.001-.45-3.482-.452-18.199L49.103.69h10.293l.086 15.06c.097 16.987.08 16.82 1.9 18.888 1.293 1.47 2.607 1.932 5.48 1.932 2.021 0 2.44-.077 3.673-.683 1.534-.754 2.337-1.738 2.997-3.673.35-1.023.406-2.993.475-16.344L74.086.69H84.4l-.071 16.98-.071 16.98-.562 1.68c-1.388 4.156-3.58 6.805-7.022 8.49-2.414 1.182-4.132 1.65-7.172 1.951-2.586.257-3.21.255-5.835-.023zm21.998-.878c.089-.144 15.916-39.249 17.776-43.92l.502-1.259h4.731c4.262 0 4.754.041 4.955.42.301.566 17.835 43.988 17.977 44.52.105.39-.267.42-5.406.42h-5.519l-1.685-4.5-1.685-4.5h-17.166l-1.681 4.5-1.682 4.5h-5.614c-3.088 0-5.564-.082-5.503-.18zm27.998-18.163c0-.128-4.825-12.712-4.907-12.8-.065-.068-4.933 12.525-4.933 12.76 0 .079 2.214.143 4.92.143s4.92-.046 4.92-.103zm19.92-4.341V.68l5.189.065 5.19.064 2.55 3.971c1.403 2.184 5.413 8.433 8.91 13.887l6.36 9.917.12-13.887.12-13.888h10.32l.062 22.62.06 22.62h-10.481l-8.98-14.01-8.98-14.01-.062 14.01-.062 14.01h-10.316zm53.28 4.564V9.81h-10.8V.69h31.92v9.12h-10.8v36.24h-10.32zm24.72-4.56V.69h10.32v45.36h-10.32zm17.04 0V.69l19.26.001h19.26l4.68 7.172c2.574 3.945 4.753 7.129 4.842 7.076.089-.052 2.242-3.28 4.784-7.172L286.07.69h6.21c4.903 0 6.172.063 6.03.3-.098.165-3.83 5.78-8.294 12.479l-8.114 12.178v20.403h-10.56V25.647l-8.28-12.418L254.783.81v9h-15.84v8.872l7.26.064 7.26.063.065 4.5.065 4.5-6.785.004c-3.732.002-7.028.068-7.325.148l-.54.144V46.05h-10.32V23.37z"/>
</svg>
