<svg xmlns="http://www.w3.org/2000/svg" xmlns:xlink="http://www.w3.org/1999/xlink" fill="none" height="400" viewBox="0 0 300 301" width="400">
  <defs>
    <pattern id="b" width="1" height="1" patternContentUnits="objectBoundingBox">
      <use transform="scale(.0009 .00305)" xlink:href="#a"/>
    </pattern>
  </defs>
  <path fill="#99163D" d="M7.172 19.816h284.531v280H7.172v-280z"/>
  <path fill="#99163D" d="M4 1h290v246H4V1z"/>
  <path fill="#99163D" d="M191.84 82.59l-.004.004c-12.438-.254-25.543-1.172-39.332-2.93a265.828 265.828 0 00-33.535-2.105c-.735 0-1.469.004-2.203.007-.641.004-1.286.012-1.926.024-.317.004-.637.008-.953.016a120.733 120.733 0 00-1.711.038c-.614.012-1.223.028-1.836.051l-.473.012c-.398.016-.793.031-1.187.043-.43.016-.86.031-1.289.05-.61.028-1.219.056-1.825.087-.367.02-.73.035-1.093.058-.403.016-.797.04-1.192.063-.66.035-1.32.078-1.98.117-1.293.086-2.582.176-3.867.277-.473.035-.942.075-1.415.117-.53.043-1.066.087-1.597.137-.488.043-.973.09-1.465.133-.094.012-.188.016-.281.027-.614.055-1.219.118-1.832.184a9.072 9.072 0 00-.457.047 89.75 89.75 0 00-2.039.219c-.649.07-1.297.144-1.946.222a271.39 271.39 0 00-8.922 1.203c-.52.079-1.03.153-1.55.235a16.9 16.9 0 01-.403.062c-.52.086-1.043.168-1.558.254-.156.024-.309.051-.461.074a97.05 97.05 0 00-1.48.254 51.693 51.693 0 00-1.766.309 53.49 53.49 0 00-1.14.2c-.548.1-1.09.202-1.63.304-.676.125-1.348.254-2.02.39a238.532 238.532 0 00-7.038 1.473 214.023 214.023 0 00-3.074.699l-.196.047a155.875 155.875 0 00-2.426.586c-.492.117-.98.238-1.472.363-.641.16-1.282.32-1.922.489a265.356 265.356 0 00-6.203 1.68c-.551.16-1.106.316-1.657.476-.058.016-.113.035-.168.05-.586.169-1.175.345-1.761.52-.434.13-.864.262-1.293.395-.383.11-.766.23-1.149.347-.398.126-.793.246-1.191.371-.48.153-.957.301-1.43.458-.37.117-.738.238-1.11.355a280.226 280.226 0 00-6.206 2.11c-.317.113-.633.222-.945.335a260.68 260.68 0 00-4.337 1.598l-1.167.445a222.28 222.28 0 00-2.348.918 242.043 242.043 0 00-9.332 3.922l-.219.094a77.38 77.38 0 00-1.308.594c-.403.179-.805.363-1.204.547-.328.152-.66.3-.984.457-.344.156-.68.316-1.023.476V49.07C97.293 38.711 191.84 82.59 191.84 82.59z"/>
  <path fill="#fff" d="M293.809 68.121v39.867c-27.282 6.809-63.008 8.422-112.09-1.359-88.18-17.559-145.031-5.149-177.41 8.551v-12.602c.343-.16.68-.32 1.023-.476.324-.157.656-.305.984-.457.399-.184.801-.368 1.204-.547.433-.2.87-.395 1.308-.594l.219-.094c.465-.211.933-.418 1.406-.62a241.823 241.823 0 017.926-3.302l1.027-.406c.442-.172.883-.344 1.32-.512a374.8 374.8 0 011.169-.445 262.608 262.608 0 014.336-1.598c.312-.113.628-.222.945-.336a278.57 278.57 0 016.207-2.11c.37-.12.738-.237 1.11-.354.472-.157.948-.305 1.429-.458.398-.125.793-.246 1.191-.37.38-.118.762-.239 1.149-.348.43-.133.86-.266 1.293-.395.586-.175 1.175-.351 1.761-.52.055-.015.11-.034.168-.05.551-.16 1.106-.317 1.657-.477a275.61 275.61 0 016.203-1.68c.64-.167 1.281-.327 1.922-.488.492-.125.98-.246 1.472-.363.325-.086.653-.164.98-.242a159.157 159.157 0 011.641-.39c.57-.133 1.137-.266 1.711-.395a75.02 75.02 0 011.364-.305c.437-.102.879-.2 1.32-.293 1.894-.414 3.797-.809 5.719-1.18.671-.136 1.343-.265 2.02-.39.538-.102 1.081-.203 1.628-.305.379-.07.758-.137 1.14-.2.337-.062.677-.124 1.012-.183.25-.043.5-.086.754-.125.492-.09.985-.172 1.48-.254.153-.023.305-.05.462-.074.515-.086 1.039-.168 1.558-.254.133-.02.266-.039.403-.062.52-.082 1.03-.16 1.55-.235a271.39 271.39 0 0110.868-1.425 90.761 90.761 0 012.039-.219 8.73 8.73 0 01.457-.047 96.982 96.982 0 011.832-.184c.093-.011.187-.015.281-.027.492-.043.977-.09 1.465-.133.531-.05 1.066-.094 1.597-.137.473-.042.946-.082 1.415-.117 1.285-.101 2.574-.191 3.867-.277.66-.04 1.32-.082 1.98-.117.395-.024.793-.047 1.192-.067.363-.02.726-.035 1.093-.054.606-.031 1.215-.059 1.825-.086.429-.02.859-.035 1.289-.051.394-.012.789-.027 1.187-.043l.473-.012a93.53 93.53 0 011.836-.05 120.733 120.733 0 011.711-.039c.316-.008.636-.012.953-.016.64-.012 1.285-.02 1.926-.024a404.12 404.12 0 012.203-.007c11.082 0 22.297.675 33.535 2.105 13.789 1.758 26.894 2.676 39.332 2.93 41.824.847 75.969-5.942 101.973-14.473z"/>
  <path fill="#000" d="M293.809 107.988v22.391c-42.762 15.535-94.477 24.496-147.309 10.574-50.414-13.285-99.688-15.836-142.191-5.348V115.18c32.379-13.7 89.23-26.11 177.41-8.551 49.082 9.781 84.808 8.168 112.09 1.359z"/>
  <path fill="#99163D" d="M293.809 130.379V241.5H4.309V135.605c42.504-10.488 91.777-7.937 142.191 5.348 52.832 13.922 104.547 4.961 147.309-10.574z"/>
  <path fill="#000" d="M291.102 291.172H300v8.898h-8.898v-8.898zM0 9.07h9v282.102H0V9.07zm0 282.102h9v8.898H0v-8.898zM291.102 9.07H300v282.102h-8.898V9.07zM9 291.172h282.102v8.898H9v-8.898zM291.102.07H300v9h-8.898v-9zM0 .07h9v9H0v-9zm9 0h282.102v9H9v-9z"/>
  <!--<path fill="url(#b)" d="M17.7 202.672h.24v.24h-.24z"/>-->
</svg>